<?xml version="1.0" standalone="no"?>
<!DOCTYPE svg PUBLIC "-//W3C//DTD SVG 20010904//EN"
 "http://www.w3.org/TR/2001/REC-SVG-20010904/DTD/svg10.dtd">
<svg version="1.0" xmlns="http://www.w3.org/2000/svg"
 width="128.000000pt" height="128.000000pt" viewBox="0 0 128.000000 128.000000"
 preserveAspectRatio="xMidYMid meet">
<metadata>
Created by potrace 1.15, written by Peter Selinger 2001-2017
</metadata>
<g transform="translate(0.000000,128.000000) scale(0.100000,-0.100000)"
fill="#000000" stroke="none">
<path d="M0 640 l0 -640 120 0 c66 0 120 3 120 6 0 3 -4 13 -10 23 -5 10 -18
54 -30 99 l-21 80 40 41 c22 23 46 41 53 41 7 0 26 -18 41 -40 49 -69 126
-147 196 -199 l68 -51 98 0 97 0 60 45 c33 25 72 60 87 78 14 19 45 55 68 81
l42 47 6 -45 c4 -25 6 -81 4 -126 l-4 -80 122 0 123 0 0 640 0 640 -26 0 c-21
0 -25 -3 -19 -17 4 -10 7 -24 6 -30 -4 -42 0 -106 7 -117 3 -6 6 -30 7 -53 0
-40 -1 -41 -19 -25 -18 16 -19 16 -12 -22 6 -33 5 -38 -8 -33 -12 5 -16 0 -16
-21 l-1 -27 -15 28 c-8 15 -12 32 -9 37 3 5 0 12 -6 16 -8 4 -9 3 -5 -4 4 -7
3 -12 -1 -12 -10 0 -9 -137 0 -147 4 -3 7 1 7 11 0 9 4 15 9 12 4 -3 6 -17 3
-31 -5 -28 -3 -29 32 -14 14 7 27 21 29 33 2 11 5 -7 6 -41 1 -73 -29 -165
-62 -188 -28 -19 -37 -19 -37 2 0 40 -11 -1 -21 -78 -5 -46 -15 -87 -21 -90
-7 -4 -13 -14 -14 -23 -1 -8 -13 -30 -26 -48 -12 -18 -21 -33 -19 -33 2 0 -5
-20 -16 -45 -21 -48 -76 -110 -98 -110 -7 0 -18 -7 -25 -15 -7 -9 -15 -13 -18
-11 -2 3 13 27 34 53 39 48 28 43 -41 -18 -16 -15 -48 -30 -70 -34 -22 -4 -51
-9 -65 -12 -48 -9 -86 -2 -134 22 -27 14 -56 25 -65 25 -39 0 -181 181 -167
215 2 7 0 17 -5 22 -16 16 -18 51 -4 57 8 3 40 -10 71 -29 32 -19 61 -35 66
-35 4 0 8 -10 8 -23 0 -22 12 -36 60 -70 32 -22 167 -24 196 -2 17 13 14 14
-39 15 -93 0 -171 44 -94 52 27 3 29 5 12 12 -44 17 -65 30 -65 38 0 5 5 6 12
2 17 -11 111 -11 125 -1 7 5 18 7 25 4 7 -2 25 0 40 4 21 6 30 4 37 -8 8 -15
12 -14 47 3 45 23 131 27 126 6 -1 -8 2 -11 8 -7 6 4 8 15 5 24 -8 28 5 53 26
48 14 -4 16 0 13 21 -7 34 -22 52 -44 52 -10 0 -45 20 -77 44 -65 48 -96 66
-112 66 -11 0 57 -109 92 -147 l20 -23 -23 -20 c-12 -11 -37 -22 -54 -24 -82
-13 -126 -15 -126 -7 0 5 18 24 40 41 22 18 48 46 56 63 l16 30 -36 -21 c-24
-14 -54 -22 -85 -22 -41 0 -51 4 -66 26 -13 20 -22 24 -41 20 -31 -8 -44 18
-21 41 13 13 19 14 31 3 14 -10 16 -9 16 7 0 46 -39 49 -74 5 -11 -14 -44 -35
-73 -48 -55 -25 -109 -32 -98 -14 3 6 -2 10 -13 10 -17 0 -62 70 -62 99 0 6
-5 11 -10 11 -13 0 -9 59 4 67 5 3 6 1 2 -5 -4 -7 -1 -12 8 -12 20 0 30 17 14
23 -9 4 -9 6 -1 6 6 1 18 -6 27 -14 19 -20 27 -19 19 1 -5 14 -3 15 15 5 26
-14 35 -14 26 0 -3 6 4 4 18 -5 18 -12 34 -14 68 -7 l45 8 -50 8 c-65 10 -68
12 -44 36 13 13 27 18 40 14 11 -4 40 -7 64 -7 25 0 47 -3 50 -8 8 -13 43 0
48 19 2 9 18 24 36 33 l32 15 -24 16 c-21 14 -38 14 -128 5 -57 -6 -107 -15
-110 -20 -3 -5 -30 -5 -65 1 -32 5 -62 7 -65 5 -3 -2 -4 9 -2 24 2 15 5 34 7
42 1 9 6 21 10 28 4 7 5 16 2 19 -3 4 1 15 10 25 14 14 14 20 4 33 -7 8 -16
12 -21 9 -5 -3 -9 0 -9 5 0 21 24 11 51 -21 16 -18 28 -27 29 -20 0 6 -4 12
-10 12 -5 0 -10 6 -10 14 0 7 -6 19 -14 25 -14 12 -14 60 0 83 4 7 9 22 10 34
l2 22 -199 2 -199 1 0 -641z"/>
<path d="M753 954 c-6 -17 23 -71 46 -84 25 -13 71 -13 71 0 0 6 7 10 15 10 8
0 15 5 15 11 0 8 23 10 79 6 74 -5 79 -4 69 12 -12 20 -91 46 -107 36 -6 -3
-9 0 -6 7 4 10 -15 13 -86 14 -64 1 -92 -3 -96 -12z"/>
</g>
</svg>
